<svg xmlns="http://www.w3.org/2000/svg" viewBox="0 0 666.48 661.16"><defs><style>.a{fill:#231f20;}.b{fill:#fff;}</style></defs><polygon class="a" points="94.57 654.75 3.13 654.55 1.79 6.07 93.23 6.27 94.57 654.75"/><rect class="a" x="133.96" y="5.91" width="91.42" height="648.99" transform="translate(-9.98 5.62) rotate(-1.74)"/><polygon class="a" points="345.99 657.25 254.7 652.14 288.18 3.69 379.47 8.8 345.99 657.25"/><polygon class="a" points="660.14 650.57 569.08 659 513.6 10.26 604.67 1.83 660.14 650.57"/><path class="a" d="M469.29,342.38c0,7.63-7.71,13.81-17.24,13.81s-17.24-6.18-17.24-13.81,7.72-13.81,17.24-13.81S469.29,334.76,469.29,342.38Z"/><path class="a" d="M452.05,300.43c-37.32,0-67.57,18.91-67.57,42.25s30.25,42.25,67.57,42.25,67.58-18.92,67.58-42.25S489.37,300.43,452.05,300.43Zm0,66.5c-21.42,0-38.78-10.86-38.78-24.25s17.36-24.25,38.78-24.25,38.79,10.85,38.79,24.25S473.47,366.93,452.05,366.93Z"/><path class="b" d="M469.29,342.38c0,7.63-7.71,13.81-17.24,13.81s-17.24-6.18-17.24-13.81,7.72-13.81,17.24-13.81S469.29,334.76,469.29,342.38Z"/><path class="a" d="M469.29,342.38c0,7.63-7.71,13.81-17.24,13.81s-17.24-6.18-17.24-13.81,7.72-13.81,17.24-13.81S469.29,334.76,469.29,342.38Z"/><rect class="a" x="446.89" y="233.65" width="10.32" height="51.87"/><rect class="a" x="474.14" y="236.63" width="10.32" height="51.87" transform="translate(81.68 -112.35) rotate(14.6)"/><rect class="a" x="498.62" y="246.51" width="10.32" height="51.87" transform="translate(156.8 -183.22) rotate(24.31)"/><rect class="a" x="418.86" y="236.48" width="10.32" height="51.87" transform="translate(900.51 409.46) rotate(165.4)"/><rect class="a" x="394.39" y="246.36" width="10.32" height="51.87" transform="translate(875.76 355.99) rotate(155.69)"/></svg>