<svg xmlns="http://www.w3.org/2000/svg" viewBox="0 0 679.95 962.03"><defs><style>.a{isolation:isolate;}.b,.e{fill:#231f20;}.b,.c,.d{mix-blend-mode:luminosity;}.c{fill:#fff;}</style></defs><g class="a"><polygon class="b" points="104.78 652.92 13.35 652.72 12.01 4.24 103.44 4.44 104.78 652.92"/><rect class="b" x="144.17" y="4.08" width="91.42" height="648.99" transform="translate(-9.92 5.93) rotate(-1.74)"/><polygon class="b" points="356.2 655.42 264.91 650.31 298.4 1.86 389.69 6.97 356.2 655.42"/><polygon class="b" points="670.35 648.74 579.29 657.17 523.82 8.43 614.88 0 670.35 648.74"/><ellipse class="b" cx="462.26" cy="340.56" rx="17.24" ry="13.81"/><path class="b" d="M462.26,298.6c-37.31,0-67.57,18.92-67.57,42.25S425,383.1,462.26,383.1s67.58-18.92,67.58-42.25S499.58,298.6,462.26,298.6Zm0,66.5c-21.41,0-38.78-10.86-38.78-24.25s17.37-24.25,38.78-24.25,38.79,10.86,38.79,24.25S483.68,365.1,462.26,365.1Z"/><ellipse class="c" cx="462.26" cy="340.56" rx="17.24" ry="13.81"/><ellipse class="b" cx="462.26" cy="340.56" rx="17.24" ry="13.81"/><g class="d"><rect class="e" x="457.11" y="231.82" width="10.32" height="51.87"/><rect class="e" x="484.36" y="234.8" width="10.32" height="51.87" transform="translate(81.54 -114.99) rotate(14.6)"/><rect class="e" x="508.84" y="244.68" width="10.32" height="51.87" transform="translate(156.96 -187.59) rotate(24.31)"/><rect class="e" x="429.08" y="234.65" width="10.32" height="51.87" transform="translate(920.15 403.28) rotate(165.4)"/><rect class="e" x="404.6" y="244.53" width="10.32" height="51.87" transform="translate(894.53 348.28) rotate(155.69)"/></g><g class="d"><path class="e" d="M82.39,958.49q-35,0-54.89-21T7.59,879.74q0-37.05,18.56-59t50.15-22q29.33,0,46.75,18.74t17.42,50.75v15.3H33.94q.7,26.25,13.46,39.87T83.52,937a123.88,123.88,0,0,0,23.66-2.18,136.77,136.77,0,0,0,26.21-8.49v22.18a124.44,124.44,0,0,1-24.23,7.72A140,140,0,0,1,82.39,958.49ZM76,819.38q-18.28,0-28.9,11.65T34.51,863.46H113.7q-.28-21.62-10.06-32.85T76,819.38Z"/><path class="e" d="M197.23,955.69h-25.5V737.26h25.5Z"/><path class="e" d="M331,955.69l-5-21.9h-1.13q-11.62,14.46-23.16,19.58t-29.12,5.12q-23,0-36-11.93t-13-33.69q0-46.87,74.65-49.13l26.35-1v-9.13q0-17.55-7.65-25.9t-24.5-8.35A73.51,73.51,0,0,0,269.13,823a192.3,192.3,0,0,0-20.61,8.14l-7.79-18.95a115.93,115.93,0,0,1,25.64-9.69A112.32,112.32,0,0,1,293.85,799q28.2,0,41.93,12.36t13.75,39.3v105Zm-52.56-17.55q21.39,0,33.65-11.44t12.25-32.5V880.3l-22.95,1q-26.78,1-39,8.42t-12.25,23.44q0,12.08,7.44,18.53T278.41,938.14Z"/><path class="e" d="M579.92,955.69V856.44q0-36.5-31.59-36.5-21.68,0-31.87,12.5t-10.2,38.18v85.07H480.9V856.44q0-18.26-7.72-27.37T449,819.94q-21.54,0-31.52,13.06t-10,42.81v79.88H382V801.55h20.54l3.83,21.06h1.42a45.93,45.93,0,0,1,18.77-17.55,57.74,57.74,0,0,1,27.12-6.32q36.56,0,47.6,25.83h1.42a51,51,0,0,1,20.47-19.09,62.8,62.8,0,0,1,29.39-6.74q26.35,0,39.46,13.48t13.1,43.1V955.69Z"/><path class="e" d="M635.08,759.86q0-8.43,4.32-12.21a16.58,16.58,0,0,1,21.1,0q4.47,3.78,4.47,12.21,0,8.28-4.47,12.21a16.12,16.12,0,0,1-21.1,0Q635.08,768.14,635.08,759.86Zm27.48,195.83h-25.5V801.55h25.5Z"/></g></g></svg>