<svg xmlns="http://www.w3.org/2000/svg" viewBox="0 0 546.79 610.17"><defs><style>.a{fill:#231f20;}.b{fill:#fff;}</style></defs><path class="a" d="M342.31,433.49c0,30-30.39,54.38-67.88,54.38s-67.89-24.35-67.89-54.38,30.4-54.38,67.89-54.38S342.31,403.46,342.31,433.49Z"/><path class="a" d="M274.43,268.29c-146.95,0-266.07,74.48-266.07,166.35S127.48,601,274.43,601,540.5,526.52,540.5,434.64,421.37,268.29,274.43,268.29Zm0,261.83c-84.34,0-152.72-42.74-152.72-95.48s68.38-95.48,152.72-95.48,152.71,42.75,152.71,95.48S358.77,530.12,274.43,530.12Z"/><path class="b" d="M342.31,433.49c0,30-30.39,54.38-67.88,54.38s-67.89-24.35-67.89-54.38,30.4-54.38,67.89-54.38S342.31,403.46,342.31,433.49Z"/><path class="a" d="M342.31,433.49c0,30-30.39,54.38-67.88,54.38s-67.89-24.35-67.89-54.38,30.4-54.38,67.89-54.38S342.31,403.46,342.31,433.49Z"/><rect class="a" x="254.1" y="5.32" width="40.65" height="204.22"/><rect class="a" x="361.4" y="17.08" width="40.65" height="204.22" transform="translate(42.38 -92.39) rotate(14.6)"/><rect class="a" x="457.78" y="55.98" width="40.65" height="204.22" transform="translate(107.46 -182.79) rotate(24.31)"/><rect class="a" x="143.74" y="16.5" width="40.65" height="204.22" transform="translate(352.74 192.03) rotate(165.4)"/><rect class="a" x="47.35" y="55.39" width="40.65" height="204.22" transform="translate(194.19 273.19) rotate(155.69)"/></svg>