<svg xmlns="http://www.w3.org/2000/svg" viewBox="0 0 1652.4 670.61"><defs><style>.a{fill:#231f20;}.b{fill:#fff;}</style></defs><polygon class="a" points="100.1 660.21 8.67 660.01 7.33 11.53 98.77 11.73 100.1 660.21"/><rect class="a" x="139.5" y="11.37" width="91.42" height="648.99" transform="translate(-10.14 5.79) rotate(-1.74)"/><polygon class="a" points="351.52 662.71 260.23 657.6 293.72 9.15 385.01 14.26 351.52 662.71"/><polygon class="a" points="665.67 656.03 574.61 664.46 519.14 15.72 610.2 7.29 665.67 656.03"/><ellipse class="a" cx="457.59" cy="347.85" rx="17.24" ry="13.81"/><path class="a" d="M457.59,305.89c-37.32,0-67.57,18.92-67.57,42.25s30.25,42.25,67.57,42.25,67.57-18.92,67.57-42.25S494.91,305.89,457.59,305.89Zm0,66.5c-21.42,0-38.78-10.86-38.78-24.25s17.36-24.25,38.78-24.25,38.78,10.86,38.78,24.25S479,372.39,457.59,372.39Z"/><ellipse class="b" cx="457.59" cy="347.85" rx="17.24" ry="13.81"/><ellipse class="a" cx="457.59" cy="347.85" rx="17.24" ry="13.81"/><rect class="a" x="452.43" y="239.11" width="10.32" height="51.87"/><rect class="a" x="479.68" y="242.09" width="10.32" height="51.87" transform="translate(83.23 -113.57) rotate(14.6)"/><rect class="a" x="504.16" y="251.97" width="10.32" height="51.87" transform="translate(159.54 -185.01) rotate(24.31)"/><rect class="a" x="424.4" y="241.94" width="10.32" height="51.87" transform="translate(912.78 418.81) rotate(165.4)"/><rect class="a" x="399.92" y="251.82" width="10.32" height="51.87" transform="translate(888.59 364.15) rotate(155.69)"/><path class="a" d="M953.29,294.08q-17,0-29.49-6.35a83.51,83.51,0,0,1-23.14-17.66q-10.59-11.29-22.25-26.49-10.24-14.12-17.66-20.48a26.7,26.7,0,0,0-18-6.36,22.58,22.58,0,0,0-16.42,6.36q-6.54,6.35-6.53,18.71a26,26,0,0,0,6.88,18.37q6.89,7.41,18.9,7.42t19.95-7.07q8-7,13.6-20.48l18.72,21.19a128.7,128.7,0,0,1-14.13,16.95,56.52,56.52,0,0,1-16.78,11.66q-9.36,4.23-23.13,4.23-18.72,0-30-7.77a44.89,44.89,0,0,1-16.42-19.95,64.43,64.43,0,0,1-5.12-25.25q0-15.54,6.71-26.84a47.91,47.91,0,0,1,18-17.66A50.23,50.23,0,0,1,842,190.25a54.84,54.84,0,0,1,22.6,4.42,67.08,67.08,0,0,1,19.42,13.77A213,213,0,0,1,904.9,233a208.44,208.44,0,0,0,17,19.78A44.46,44.46,0,0,0,937,263.18a49.8,49.8,0,0,0,18,3q17.66,0,27-11.3t9.36-35.67a116.24,116.24,0,0,0-6.53-38.5,147.18,147.18,0,0,0-18.19-35.49,200.4,200.4,0,0,0-27.2-31.43,244.08,244.08,0,0,0-33.9-26.67,248.94,248.94,0,0,0-38.15-20.48l13.42-28.26A271.3,271.3,0,0,1,920.26,59a255.18,255.18,0,0,1,38,29.32,230.22,230.22,0,0,1,32.14,37.08,178.1,178.1,0,0,1,22.25,44,154.71,154.71,0,0,1,8.12,50.51q0,23.31-7.94,39.91a57.43,57.43,0,0,1-23,25.42Q974.83,294.08,953.29,294.08Z"/><path class="a" d="M1158.83,294.08q-37.08,0-62.33-12.71t-38.14-35.14q-12.9-22.42-12.9-51.39,0-26.13,9-44.32t24.19-27.73a62.51,62.51,0,0,1,33.91-9.53q14.12,0,24.54,5.47a39.83,39.83,0,0,1,16.25,15.54q5.84,10.06,5.83,23.84a52.32,52.32,0,0,1-6,25.25A41.09,41.09,0,0,1,1135,200.67q-12.18,6.18-30.9,6.18a58.38,58.38,0,0,1-21.54-3.88,67.82,67.82,0,0,1-17.13-9.54,83.07,83.07,0,0,1-11.83-11l8.12-21.9a77.09,77.09,0,0,0,8,9,44.53,44.53,0,0,0,13.24,8.83q8.11,3.71,19.43,3.71,14.48,0,21.72-6t7.24-16.6q0-10.23-5.65-15.71t-14.84-5.48q-17,0-27.19,13.78t-10.24,37.43v6.36a69.74,69.74,0,0,0,5.12,26.67A65.13,65.13,0,0,0,1093.85,245q10.25,9.9,26.31,15.54t37.61,5.65q38.85,0,61.46-16.24t22.6-46.62a62.14,62.14,0,0,0-11.48-36.73q-11.47-16.25-35.85-26.14l14.13-27.19q29.31,12.7,45.91,35.32t16.6,53q0,26.14-11.65,47.15t-36.55,33.2Q1198,294.08,1158.83,294.08Z"/><path class="a" d="M1453.38,294.08q-16.25,0-28.6-6.35A81.78,81.78,0,0,1,1402,270.07q-10.43-11.29-22.08-26.49-10.25-14.12-17.66-20.48a26.7,26.7,0,0,0-18-6.36,22.58,22.58,0,0,0-16.42,6.36q-6.54,6.35-6.53,18.71a26,26,0,0,0,6.88,18.37q6.88,7.41,18.9,7.42t20-7.07q8-7,13.6-20.48l18.72,21.19a128.7,128.7,0,0,1-14.13,16.95,56.52,56.52,0,0,1-16.78,11.66q-9.36,4.23-23.13,4.23-18.72,0-30-7.77a44.89,44.89,0,0,1-16.42-19.95,64.43,64.43,0,0,1-5.12-25.25q0-15.54,6.71-26.84a47.91,47.91,0,0,1,18-17.66,50.22,50.22,0,0,1,25.07-6.36,54.86,54.86,0,0,1,22.61,4.42,67.08,67.08,0,0,1,19.42,13.77A213,213,0,0,1,1406.41,233a208.44,208.44,0,0,0,16.95,19.78q7.42,7.42,14.84,10.42a45.91,45.91,0,0,0,17.3,3q12.36,0,20.66-5.47t12.54-17.84q4.24-12.36,4.24-32.49a145.31,145.31,0,0,0-7.77-46.44A168.51,168.51,0,0,0,1463.62,121a148.56,148.56,0,0,0-32.13-33.73,99.86,99.86,0,0,0-39.56-18.54,68,68,0,0,0-8.83-1.59,80.86,80.86,0,0,0-9.18-.53q-13.08,0-20.13,5.65t-7.07,14.13q0,8.82,5,14.12t15.18,5.3q9.54,0,15.72-4.94t6.18-17.31a37,37,0,0,0-3.35-15.72A37.61,37.61,0,0,0,1377.1,56l25.07-3.88a93.31,93.31,0,0,1,8.3,16.42,49.81,49.81,0,0,1,3.36,18.19q0,19.78-12.36,31.61t-35,11.83q-16.24,0-26.49-6.71a40.1,40.1,0,0,1-14.83-16.42,44.78,44.78,0,0,1-4.59-19.25q0-14.83,7.24-24.9t20.31-15.36q13-5.31,30.37-5.3a118.63,118.63,0,0,1,53.68,12.89A152.31,152.31,0,0,1,1478.28,91a175.25,175.25,0,0,1,32.14,53.68q11.83,30.72,11.83,66.4,0,28.6-8.12,47t-23.49,27.19Q1475.28,294.08,1453.38,294.08Zm122.55,0q-23.65,0-41.49-12a123.16,123.16,0,0,1-31.61-31.44L1517,227.69a142.8,142.8,0,0,0,19.61,21.54A72,72,0,0,0,1556.69,262a57.16,57.16,0,0,0,21.72,4.23q18,0,27.54-11.48t9.54-33q0-20.48-8.3-35.84a85.52,85.52,0,0,0-22.25-26.49,142.27,142.27,0,0,0-31.61-18.9l13.07-27.19A143.41,143.41,0,0,1,1606,138a122.71,122.71,0,0,1,28.26,36q10.59,20.49,10.59,45.56,0,35-17.65,54.75T1575.93,294.08Z"/><path class="a" d="M886.21,664.15q-44,0-69-26.61t-25-73.23q0-47,23.31-74.84t63-27.85q36.84,0,58.73,23.76t21.89,64.33v19.4H825.34q.88,33.28,16.91,50.54t45.38,17.27a154.07,154.07,0,0,0,29.72-2.76q14.05-2.76,32.92-10.77v28.12a154.82,154.82,0,0,1-30.43,9.79A174.17,174.17,0,0,1,886.21,664.15Zm-8-176.37q-23,0-36.31,14.77t-15.84,41.11h99.49q-.36-27.4-12.64-41.64T878.2,487.78Z"/><path class="a" d="M1030.48,660.59h-32V383.67h32Z"/><path class="a" d="M1198.49,660.59l-6.23-27.77h-1.42q-14.6,18.33-29.1,24.83t-36.57,6.5q-28.83,0-45.2-15.13t-16.38-42.71q0-59.44,93.79-62.29l33.1-1.25V531.2q0-22.25-9.61-32.83t-30.78-10.59a91.27,91.27,0,0,0-29.28,4.63,237.44,237.44,0,0,0-25.89,10.32l-9.79-24a145,145,0,0,1,32.21-12.28,139.54,139.54,0,0,1,34.53-4.45q35.4,0,52.67,15.66t17.27,49.83V660.59Zm-66-22.25q26.87,0,42.26-14.5t15.4-41.2V565l-28.83,1.24q-33.65,1.25-49,10.68t-15.4,29.72q0,15.32,9.35,23.49T1132.47,638.34Z"/><path class="a" d="M1511.25,660.59V534.76q0-46.27-39.68-46.27-27.24,0-40,15.84t-12.81,48.41V660.59h-31.86V534.76q0-23.13-9.69-34.7t-30.35-11.57q-27,0-39.6,16.55t-12.54,54.28V660.59h-32V465.18h25.81l4.8,26.69H1295a58,58,0,0,1,23.58-22.24,72.06,72.06,0,0,1,34.08-8q45.93,0,59.8,32.74h1.78a64.31,64.31,0,0,1,25.72-24.2q16.27-8.55,36.93-8.54,33.09,0,49.56,17.08t16.46,54.64V660.59Z"/><path class="a" d="M1580.54,412.32q0-10.68,5.43-15.48a20.68,20.68,0,0,1,26.52,0q5.6,4.8,5.6,15.48,0,10.5-5.6,15.48a20.11,20.11,0,0,1-26.52,0Q1580.54,422.82,1580.54,412.32Zm34.53,248.27h-32V465.18h32Z"/></svg>