<svg xmlns="http://www.w3.org/2000/svg" viewBox="0 0 678.14 951.75"><defs><style>.a{fill:#231f20;}.b{fill:#fff;}</style></defs><polygon class="a" points="104.33 666.68 12.9 666.48 11.56 18 102.99 18.2 104.33 666.68"/><rect class="a" x="143.72" y="17.84" width="91.42" height="648.99" transform="translate(-10.33 5.93) rotate(-1.74)"/><polygon class="a" points="355.75 669.18 264.46 664.07 297.95 15.62 389.24 20.73 355.75 669.18"/><polygon class="a" points="669.9 662.5 578.84 670.93 523.37 22.19 614.43 13.76 669.9 662.5"/><ellipse class="a" cx="461.82" cy="354.32" rx="17.24" ry="13.81"/><path class="a" d="M461.82,312.36c-37.32,0-67.57,18.92-67.57,42.25s30.25,42.25,67.57,42.25,67.57-18.92,67.57-42.25S499.14,312.36,461.82,312.36Zm0,66.5C440.4,378.86,423,368,423,354.61s17.37-24.25,38.79-24.25,38.78,10.86,38.78,24.25S483.24,378.86,461.82,378.86Z"/><ellipse class="b" cx="461.82" cy="354.32" rx="17.24" ry="13.81"/><ellipse class="a" cx="461.82" cy="354.32" rx="17.24" ry="13.81"/><rect class="a" x="456.66" y="245.57" width="10.32" height="51.87"/><rect class="a" x="483.91" y="248.56" width="10.32" height="51.87" transform="translate(85 -114.43) rotate(14.6)"/><rect class="a" x="508.38" y="258.44" width="10.32" height="51.87" transform="translate(162.58 -186.18) rotate(24.31)"/><rect class="a" x="428.63" y="248.41" width="10.32" height="51.87" transform="matrix(-0.97, 0.25, -0.25, -0.97, 922.73, 430.47)"/><rect class="a" x="404.15" y="258.29" width="10.32" height="51.87" transform="translate(899.33 374.77) rotate(155.69)"/><path class="a" d="M131.81,944.91q-13,0-22.61-4.88A64,64,0,0,1,91.47,926.5q-8.13-8.67-17.06-20.31-7.84-10.82-13.53-15.7a20.5,20.5,0,0,0-13.81-4.87,17.31,17.31,0,0,0-12.59,4.87q-5,4.88-5,14.35a19.9,19.9,0,0,0,5.28,14.08q5.28,5.69,14.49,5.68t15.29-5.41q6.09-5.41,10.42-15.71L89.3,919.73a98.6,98.6,0,0,1-10.83,13,43.5,43.5,0,0,1-12.86,8.94q-7.17,3.24-17.73,3.25-14.35,0-23-6a34.49,34.49,0,0,1-12.59-15.3A49.36,49.36,0,0,1,8.36,904.3q0-11.91,5.14-20.58a36.74,36.74,0,0,1,13.81-13.53,38.49,38.49,0,0,1,19.22-4.88,42,42,0,0,1,17.32,3.39,51.51,51.51,0,0,1,14.89,10.55,163.36,163.36,0,0,1,16,18.82,159.42,159.42,0,0,0,13,15.16,34.06,34.06,0,0,0,11.64,8,38.25,38.25,0,0,0,13.81,2.3q13.53,0,20.71-8.66t7.18-27.35A89.21,89.21,0,0,0,156,858a112.68,112.68,0,0,0-13.95-27.21,153.32,153.32,0,0,0-20.84-24.09,187.71,187.71,0,0,0-26-20.44A190.94,190.94,0,0,0,66,770.56L76.31,748.9a206.65,206.65,0,0,1,30.18,15.84,195.14,195.14,0,0,1,29.11,22.47,176.73,176.73,0,0,1,24.63,28.42,136.51,136.51,0,0,1,17.06,33.71,118.45,118.45,0,0,1,6.23,38.71q0,17.88-6.1,30.6a44,44,0,0,1-17.59,19.49Q148.31,944.91,131.81,944.91Z"/><path class="a" d="M289.37,944.91q-28.42,0-47.78-9.75t-29.24-26.94q-9.89-17.19-9.88-39.39,0-20,6.9-34t18.54-21.26a47.91,47.91,0,0,1,26-7.31,39.92,39.92,0,0,1,18.82,4.2,30.53,30.53,0,0,1,12.45,11.91,35.86,35.86,0,0,1,4.47,18.28A40.15,40.15,0,0,1,285,860,31.57,31.57,0,0,1,271.1,873.3Q261.76,878,247.41,878a44.68,44.68,0,0,1-16.52-3,52.06,52.06,0,0,1-13.13-7.31,65.31,65.31,0,0,1-9.07-8.39l6.23-16.79a59.8,59.8,0,0,0,6.09,6.91,34.42,34.42,0,0,0,10.15,6.76,35.54,35.54,0,0,0,14.89,2.85q11.1,0,16.65-4.61t5.55-12.72q0-7.85-4.33-12t-11.37-4.19a24.75,24.75,0,0,0-20.85,10.55q-7.84,10.56-7.85,28.7v4.87a53.41,53.41,0,0,0,3.93,20.44,49.94,49.94,0,0,0,11.78,17.2,54.66,54.66,0,0,0,20.16,11.91q12.31,4.34,28.84,4.33,29.78,0,47.1-12.45T353,875.33a47.68,47.68,0,0,0-8.8-28.16q-8.81-12.45-27.48-20l10.83-20.85Q350,816,362.74,833.37T375.46,874a73.32,73.32,0,0,1-8.93,36.14q-8.94,16.11-28,25.45T289.37,944.91Z"/><path class="a" d="M515.15,944.91A47.23,47.23,0,0,1,493.23,940a63.08,63.08,0,0,1-17.47-13.53q-8-8.67-16.92-20.31-7.84-10.82-13.53-15.7a20.5,20.5,0,0,0-13.81-4.87,17.33,17.33,0,0,0-12.59,4.87q-5,4.88-5,14.35a19.9,19.9,0,0,0,5.28,14.08q5.28,5.69,14.49,5.68T449,919.19q6.09-5.41,10.42-15.71l14.35,16.25a98.6,98.6,0,0,1-10.83,13A43.5,43.5,0,0,1,450,941.66q-7.17,3.24-17.73,3.25-14.35,0-23-6a34.49,34.49,0,0,1-12.59-15.3,49.36,49.36,0,0,1-3.92-19.35q0-11.91,5.14-20.58a36.74,36.74,0,0,1,13.81-13.53A38.49,38.49,0,0,1,431,865.31a42.07,42.07,0,0,1,17.33,3.39,51.78,51.78,0,0,1,14.89,10.55,164.39,164.39,0,0,1,16,18.82,159.42,159.42,0,0,0,13,15.16,31.28,31.28,0,0,0,24.64,10.29q9.47,0,15.84-4.2t9.61-13.67q3.24-9.46,3.25-24.91a111.26,111.26,0,0,0-6-35.6A129.57,129.57,0,0,0,523,812.25a114.06,114.06,0,0,0-24.64-25.85,76.6,76.6,0,0,0-30.32-14.22,55.19,55.19,0,0,0-6.77-1.22,61.66,61.66,0,0,0-7-.4q-10,0-15.43,4.33a13.34,13.34,0,0,0-5.41,10.83q0,6.76,3.79,10.83t11.64,4.06q7.31,0,12-3.79t4.74-13.27a28.34,28.34,0,0,0-2.57-12,28.7,28.7,0,0,0-6.36-9.07l19.22-3a72.5,72.5,0,0,1,6.36,12.59A38.31,38.31,0,0,1,484.83,786q0,15.16-9.47,24.23t-26.8,9.07q-12.46,0-20.31-5.14a30.75,30.75,0,0,1-11.37-12.59,34.31,34.31,0,0,1-3.52-14.76q0-11.37,5.55-19.08a34.6,34.6,0,0,1,15.57-11.78,61.58,61.58,0,0,1,23.28-4.06,90.88,90.88,0,0,1,41.15,9.88,116.78,116.78,0,0,1,35.33,27.48,134.29,134.29,0,0,1,24.64,41.15,140.58,140.58,0,0,1,9.07,50.9q0,21.91-6.23,36t-18,20.85Q531.94,944.91,515.15,944.91Zm94,0q-18.15,0-31.81-9.21a94.07,94.07,0,0,1-24.23-24.09L563.88,894a109.53,109.53,0,0,0,15,16.51,55.1,55.1,0,0,0,15.43,9.75A43.67,43.67,0,0,0,611,923.52q13.82,0,21.12-8.8t7.31-25.31q0-15.7-6.36-27.48A65.91,65.91,0,0,0,616,841.62a109.38,109.38,0,0,0-24.23-14.48l10-20.85a110.45,110.45,0,0,1,30.32,19,94.41,94.41,0,0,1,21.66,27.62,74.93,74.93,0,0,1,8.12,34.92q0,26.81-13.54,42T609.1,944.91Z"/></svg>